<?xml version="1.0" standalone="no"?>
<!DOCTYPE svg PUBLIC "-//W3C//DTD SVG 20010904//EN"
 "http://www.w3.org/TR/2001/REC-SVG-20010904/DTD/svg10.dtd">
<svg version="1.0" xmlns="http://www.w3.org/2000/svg"
 width="127.000000pt" height="127.000000pt" viewBox="0 0 127.000000 127.000000"
 preserveAspectRatio="xMidYMid meet">
<metadata>
Created by potrace 1.14, written by Peter Selinger 2001-2017
</metadata>
<g transform="translate(0.000000,127.000000) scale(0.100000,-0.100000)"
fill="#000000" stroke="none">
<path d="M553 993 c-29 -16 -92 -71 -256 -223 -32 -30 -68 -72 -79 -93 -60
-119 -13 -267 107 -334 l50 -28 265 0 c251 1 267 2 306 22 90 48 147 150 139
248 -6 76 -39 127 -142 222 -213 196 -215 197 -292 200 -49 3 -74 -1 -98 -14z"/>
</g>
</svg>
